<?xml version="1.0" encoding="utf-8"?>
<svg version="1.1" xmlns:xlink="http://www.w3.org/1999/xlink" width="25px" height="21px" xmlns="http://www.w3.org/2000/svg">
  <g transform="matrix(1 0 0 1 -137 -459 )">
    <path d="M 24.7310227409864 11.9586328054481  L 24.7310227409864 11.9566202243502  C 24.6236697936947 11.6732183720962  24.3351589091029 11.464940716313  23.9854698425808 11.4184013278188  L 20.7412179569073 10.97020147127  L 24.4713783788135 8.12699102892899  C 24.7333954094097 7.92690529647369  24.8334429279284 7.62476411669279  24.7310227409864 7.3466566723533  C 24.6241635863211 7.06297711319108  24.3354095386934 6.85451634889044  23.9854698425808 6.8084182361996  L 20.738845288484 6.36021837965079  L 24.4713783788135 3.51700793730981  C 24.7333954094097 3.31692220485451  24.8334429279284 3.01278798359798  24.7310227409864 2.73468053925849  C 24.6232935623661 2.45069497150536  24.3336793755699 2.24228300387551  23.9830739127023 2.19644210310479  L 11.8517133098428 0.517714991955848  C 11.5934055131331 0.482063017524074  11.328898314244 0.535448535919468  11.1180702764644 0.665786249821699  L 0.627828594556169 7.21458836515941  C 0.342688498407545 7.38867920460931  0.205638262600795 7.68707759405924  0.277697171923488 7.97692672958751  C 0.349156362086097 8.26503846054977  0.618314659407566 8.49513705287337  0.968469343495378 8.56717964033066  L 4.61763337863519 9.33549712918566  L 0.627828594556169 11.8265644982542  C 0.342688498407545 12.0006553377041  0.205638262600795 12.299053727154  0.277697171923488 12.5889028626823  C 0.349156362086097 12.8770145936446  0.615918729529067 13.1051201444925  0.968469343495378 13.1791557734255  L 4.61526071021182 13.9474732622805  L 0.627828594556169 16.438540631349  C 0.343591519859668 16.612297932276  0.206652362139826 16.9096673359674  0.277697171923488 17.1988664146792  C 0.353725378948459 17.4912063342999  0.622074223812713 17.7212800455668  0.968469343495378 17.791112366898  L 13.6882051924398 20.4662820573722  C 14.000142053677 20.5332876926904  14.3312852767569 20.4641220398215  14.5695352044454 20.2821992755888  L 24.4713783788135 12.7389671620238  C 24.7333954094097 12.5388814295685  24.8334429279284 12.2367402497876  24.7310227409864 11.9586328054481  Z M 6.93528846061813 9.82369459260322  L 6.93768439049662 9.82373367184784  L 13.6882051924398 11.2463354137561  C 14.000141251768 11.3122361269762  14.3306592163583 11.243208399194  14.5695352044454 11.0622721715951  L 19.0094956682206 7.6807646742335  L 21.7892628178371 8.06493318847215  L 13.6571976727501 14.2615922305374  L 3.31468949237925 12.0846633693482  L 6.93528846061813 9.82369459260322  Z M 13.6596168640838 18.8736074428769  L 3.31471275383438 16.6966590420653  L 6.93531172207326 14.435670725698  L 13.6905778608632 15.8562794261307  C 14.0025147221004 15.9232850614489  14.3336579451803 15.8541194085801  14.5719078728687 15.6721966443474  L 19.0095189296757 12.2907477658527  L 21.7916587477156 12.674896740469  L 13.6596168640838 18.8735683636323  Z " fill-rule="nonzero" fill="#000000" stroke="none" transform="matrix(1 0 0 1 137 459 )" />
  </g>
</svg>