<?xml version="1.0" encoding="utf-8"?>
<svg version="1.1" xmlns:xlink="http://www.w3.org/1999/xlink" width="25px" height="21px" xmlns="http://www.w3.org/2000/svg">
  <g transform="matrix(1 0 0 1 -137 -504 )">
    <path d="M 24.3955720095077 11.9638944991938  C 24.2982885215431 11.68382676616  24.0196429156975 11.4747326273766  23.6774114783881 11.4249907640821  L 20.5653825102031 10.9725496294767  L 24.1442158236158 8.11714335774513  C 24.3957718132159 7.91566299480102  24.4919044661296 7.61285651156349  24.3931874921192 7.33291205776252  C 24.294907222032 7.0533734829898  24.0167444000487 6.84464162257649  23.6750269609996 6.79400832265077  L 20.5629979928146 6.34559281446009  L 24.1442158236158 3.49018654272852  C 24.39668222003 3.28831351887955  24.492889206313 2.98449131418659  24.3931874921192 2.70393261093755  C 24.294907222032 2.42439403616484  24.0167444000487 2.21566217575153  23.6750269609996 2.1650288758258  L 12.0312415320651 0.475915306632476  C 11.7810730182242 0.440581434173525  11.5247522222724 0.495321129580189  11.3250503431308 0.626729018167594  L 1.25883356527091 7.20220684109875  C 1.03705669265554 7.34981576239706  0.907745696430714 7.57446728240213  0.907745696430714 7.81215050940954  C 0.907745696430714 8.16113190847852  1.1843221954194 8.46743989374572  1.58439032166322 8.56153323952114  L 5.08663854718702 9.33170430285543  L 1.25883356527091 11.833169645328  C 1.03541191961359 11.9803012168585  0.90490850132299 12.2055376499191  0.90490850132299 12.4440104954647  C 0.90490850132299 12.7935719324804  1.18308347525556 13.1000045760457  1.58439032166322 13.1925156809524  L 5.0890230645755 13.964689738893  L 1.25883356527091 16.4661943557697  C 1.03675420615586 16.613384295828  0.907175184906362 16.8379150318483  0.907175184906362 17.0755377063338  C 0.907175184906362 17.4243658201078  1.18420630803581 17.7303450325973  1.58439032166322 17.8235177595857  L 11.1072176664064 19.9208298472271  L 13.797911763095 20.5140304459319  C 14.0990551904647 20.5798328817741  14.4193123989059 20.5106827686339  14.6453505408647 20.3310509974834  L 24.1490082360143 12.7501484309848  C 24.3991484026539 12.5471112096651  24.4941713212938 12.2440977444982  24.3955720095077 11.9638944991938  Z M 12.1174114447508 2.05242915942705  L 12.1150269273624 2.05443215403338  L 21.5708072537706 3.42180980528512  L 13.764411631549 9.64941459438234  L 3.83462665250467 7.46161427981996  L 12.1174114447508 2.05242915942705  Z M 3.8370345475146 12.0925967212512  L 7.31052829864787 9.82233979539513  L 13.7931427283181 11.2500429312609  C 14.0942788908262 11.3158381100185  14.4145250293907 11.2466884795161  14.6405581284663 11.0670634828124  L 18.9016439464427 7.66870821235243  L 21.573191771159 8.05477560412071  L 13.7667961489375 14.2804166730157  L 3.8370345475146 12.0925967212512  Z " fill-rule="nonzero" fill="#000000" stroke="none" transform="matrix(1 0 0 1 137 504 )" />
  </g>
</svg>