<?xml version="1.0" encoding="utf-8"?>
<svg version="1.1" xmlns:xlink="http://www.w3.org/1999/xlink" width="20px" height="20px" preserveAspectRatio="xMinYMid meet" viewBox="347 356  20 18" xmlns="http://www.w3.org/2000/svg">
  <path d="M 440 132  L 440 265  A 5 5 0 0 1 435 270 L 362 270  A 5 5 0 0 0 357 275 L 357 364  " stroke-width="2" stroke="#0099cc" fill="none" />
  <path d="M 440 130  A 3.5 3.5 0 0 0 436.5 133.5 A 3.5 3.5 0 0 0 440 137 A 3.5 3.5 0 0 0 443.5 133.5 A 3.5 3.5 0 0 0 440 130 Z M 349.4 363  L 357 370  L 364.6 363  L 349.4 363  Z " fill-rule="nonzero" fill="#0099cc" stroke="none" />
</svg>