<?xml version="1.0" encoding="utf-8"?>
<svg version="1.1" xmlns:xlink="http://www.w3.org/1999/xlink" width="20px" height="20px" preserveAspectRatio="xMinYMid meet" viewBox="347 776  20 18" xmlns="http://www.w3.org/2000/svg">
  <path d="M 681 694  L 681 745  A 5 5 0 0 1 676 750 L 362 750  A 5 5 0 0 0 357 755 L 357 784  " stroke-width="2" stroke="#0099cc" fill="none" />
  <path d="M 681 692  A 3.5 3.5 0 0 0 677.5 695.5 A 3.5 3.5 0 0 0 681 699 A 3.5 3.5 0 0 0 684.5 695.5 A 3.5 3.5 0 0 0 681 692 Z M 349.4 783  L 357 790  L 364.6 783  L 349.4 783  Z " fill-rule="nonzero" fill="#0099cc" stroke="none" />
</svg>