<?xml version="1.0" encoding="utf-8"?>
<svg version="1.1" xmlns:xlink="http://www.w3.org/1999/xlink" width="11px" height="10px" preserveAspectRatio="xMinYMid meet" viewBox="352 1186  11 8" xmlns="http://www.w3.org/2000/svg">
  <path d="M 357 1131  L 357 1189.5  A 0.5 0.5 0 0 0 357.5 1190 A 0.5 0.5 0 0 1 358 1190.5 L 358 1194  " stroke-width="2" stroke="#0099cc" fill="none" />
  <path d="M 357 1129  A 3.5 3.5 0 0 0 353.5 1132.5 A 3.5 3.5 0 0 0 357 1136 A 3.5 3.5 0 0 0 360.5 1132.5 A 3.5 3.5 0 0 0 357 1129 Z M 350.4 1193  L 358 1200  L 365.6 1193  L 350.4 1193  Z " fill-rule="nonzero" fill="#0099cc" stroke="none" />
</svg>