<?xml version="1.0" encoding="utf-8"?>
<svg version="1.1" xmlns:xlink="http://www.w3.org/1999/xlink" width="21px" height="20px" preserveAspectRatio="xMinYMid meet" viewBox="533 1452  21 18" xmlns="http://www.w3.org/2000/svg">
  <path d="M 542 1461  L 655 1461  A 5 5 0 0 0 660 1456 L 660 1375  A 5 5 0 0 1 665 1370 L 720 1370  " stroke-width="2" stroke="#0099cc" fill="none" />
  <path d="M 543.5 1457.5  A 3.5 3.5 0 0 0 540 1461 A 3.5 3.5 0 0 0 543.5 1464.5 A 3.5 3.5 0 0 0 547 1461 A 3.5 3.5 0 0 0 543.5 1457.5 Z M 719 1377.6  L 726 1370  L 719 1362.4  L 719 1377.6  Z " fill-rule="nonzero" fill="#0099cc" stroke="none" />
</svg>