<?xml version="1.0" encoding="utf-8"?>
<svg version="1.1" xmlns:xlink="http://www.w3.org/1999/xlink" width="10px" height="170px" preserveAspectRatio="xMidYMin meet" viewBox="298 133  8 170" xmlns="http://www.w3.org/2000/svg">
  <path d="M 97 138  L 297 138  A 5 5 0 0 1 302 143 L 302 301  " stroke-width="2" stroke="#3399ff" fill="none" />
  <path d="M 98.5 134.5  A 3.5 3.5 0 0 0 95 138 A 3.5 3.5 0 0 0 98.5 141.5 A 3.5 3.5 0 0 0 102 138 A 3.5 3.5 0 0 0 98.5 134.5 Z M 306.292893218813 295.892893218813  L 302 300.185786437627  L 297.707106781187 295.892893218813  L 296.292893218813 297.307106781187  L 301.292893218813 302.307106781187  L 302 303.014213562373  L 302.707106781187 302.307106781187  L 307.707106781187 297.307106781187  L 306.292893218813 295.892893218813  Z " fill-rule="nonzero" fill="#3399ff" stroke="none" />
</svg>