<?xml version="1.0" encoding="utf-8"?>
<svg version="1.1" xmlns:xlink="http://www.w3.org/1999/xlink" width="21px" height="10px" preserveAspectRatio="xMinYMid meet" viewBox="1005 1097  21 8" xmlns="http://www.w3.org/2000/svg">
  <path d="M 537 1157  L 605 1157  A 5 5 0 0 1 610 1162 L 610 1175  A 5 5 0 0 0 615 1180 L 1005 1180  A 5 5 0 0 0 1010 1175 L 1010 1106  A 5 5 0 0 1 1015 1101 L 1020 1101  " stroke-width="2" stroke="#0099cc" fill="none" />
  <path d="M 538.5 1153.5  A 3.5 3.5 0 0 0 535 1157 A 3.5 3.5 0 0 0 538.5 1160.5 A 3.5 3.5 0 0 0 542 1157 A 3.5 3.5 0 0 0 538.5 1153.5 Z M 1019 1108.6  L 1026 1101  L 1019 1093.4  L 1019 1108.6  Z " fill-rule="nonzero" fill="#0099cc" stroke="none" />
</svg>