<?xml version="1.0" encoding="utf-8"?>
<svg version="1.1" xmlns:xlink="http://www.w3.org/1999/xlink" width="123px" height="10px" preserveAspectRatio="xMinYMid meet" viewBox="298 240  123 8" xmlns="http://www.w3.org/2000/svg">
  <path d="M 300 131  L 411 131  A 5 5 0 0 1 416 136 L 416 239  A 5 5 0 0 1 411 244 L 308 244  A 5 5 0 0 0 303 249 L 303 252  " stroke-width="2" stroke="#3399ff" fill="none" />
  <path d="M 301.5 127.5  A 3.5 3.5 0 0 0 298 131 A 3.5 3.5 0 0 0 301.5 134.5 A 3.5 3.5 0 0 0 305 131 A 3.5 3.5 0 0 0 301.5 127.5 Z M 307.292893218813 246.892893218813  L 303 251.185786437627  L 298.707106781187 246.892893218813  L 297.292893218813 248.307106781187  L 302.292893218813 253.307106781187  L 303 254.014213562373  L 303.707106781187 253.307106781187  L 308.707106781187 248.307106781187  L 307.292893218813 246.892893218813  Z " fill-rule="nonzero" fill="#3399ff" stroke="none" />
</svg>