<?xml version="1.0" encoding="utf-8"?>
<svg version="1.1" xmlns:xlink="http://www.w3.org/1999/xlink" width="21px" height="23px" xmlns="http://www.w3.org/2000/svg">
  <g transform="matrix(1 0 0 1 -214 -60 )">
    <path d="M 12.5722212357955 12.6811645507813  C 10.130859375 11.9231079101563  9.30029296875 9.34571533203125  9.30029296875 9.34571533203125  L 8.94793146306818 9.702001953125  C 7.33713600852273 11.319189453125  0.893954190340909 17.7601440429688  0.516424005681818 18.1669677734375  C 0.0885564630681818 18.6218017578125  0.390580610795455 19.202978515625  0.390580610795455 19.202978515625  L 2.75643643465909 21.6034912109375  C 3.18430397727273 21.9799926757813  3.68767755681818 21.5756958007813  3.68767755681818 21.5756958007813  L 12.2198597301136 13.0349243164063  L 12.5722212357955 12.6811645507813  Z M 20.4248490767045 6.89466552734375  C 20.4248490767045 6.31348876953125  20.3241743607955 5.70704345703125  20.1228249289773 5.12586669921875  L 20.09765625 5.15113525390625  L 18.0841619318182 7.14735107421875  L 16.6243785511364 8.61292724609375  L 13.9564985795455 7.9079345703125  L 13.2517755681818 5.22694091796875  L 16.775390625 1.79041748046875  L 16.775390625 1.76514892578126  C 16.2046614339508 1.56677766542338  15.6049387179408 1.46550207052622  15.0009747249019 1.46550207052622  C 12.011768383267 1.46550207052622  9.58604686635078 3.89361055302818  9.5771484375 6.89466552734375  C 9.5771484375 7.02100830078125  9.5771484375 7.17261962890625  9.60231711647727 7.29896240234375  C 9.80366654829546 10.1290405273438  12.1443536931818 12.3526733398438  15.0135830965909 12.3526733398438  C 17.3542702414773 12.3526733398438  19.3425958806818 10.834033203125  20.09765625 8.73927001953125  C 20.3241743607955 8.15809326171875  20.4248490767045 7.52637939453125  20.4248490767045 6.89466552734375  Z " fill-rule="nonzero" fill="#555555" stroke="none" transform="matrix(1 0 0 1 214 60 )" />
  </g>
</svg>