<?xml version="1.0" encoding="utf-8"?>
<svg version="1.1" xmlns:xlink="http://www.w3.org/1999/xlink" width="41px" height="28px" xmlns="http://www.w3.org/2000/svg">
  <g transform="matrix(1 0 0 1 -212 -49 )">
    <path d="M 19.5172230113636 8.1202734375  L 14.7998934659091 8.1202734375  L 14.7998934659091 9.7198828125  L 11.1636186079545 9.7198828125  L 11.1636186079545 5.9054296875  L 12.9571866122159 5.9054296875  L 12.9571866122159 1.2050390625  L 0.844460227272727 1.2050390625  L 0.844460227272727 5.9054296875  L 2.41690340909091 5.9054296875  C 2.41690340909091 7.5788671875  2.44147283380682 11.2210546875  2.392333984375 13.5835546875  C 2.34319513494318 16.7089453125  5.21781782670454 18.0378515625  6.74112215909091 18.3085546875  L 10.0334250710227 18.3085546875  L 10.0334250710227 18.0132421875  C 10.0334250710227 17.238046875  10.1906693892045 16.5046875  10.4388205788352 15.815625  L 7.85411709872159 15.815625  L 7.84183238636363 15.8476171875  L 7.00647194602273 15.8476171875  C 6.47085848721591 15.7098046875  4.82470703125 15.1585546875  4.84927645596591 13.635234375  C 4.88858753551136 11.7624609375  4.88121670809659 9.0948046875  4.87630282315341 7.217109375  L 4.87384588068182 5.9054296875  L 4.87384588068182 3.6659765625  L 8.70667613636364 3.6659765625  L 8.70667613636364 12.0479296875  L 13.9522483132102 12.0479296875  C 14.7629531734523 11.6972719587319  15.6366879019674 11.5163785864406  16.5197531960227 11.5163671875  C 17.5860662286932 11.5163671875  18.5762140447443 11.784609375  19.4754549893466 12.26203125  L 18.608154296875 13.733671875  L 16.1610395951705 16.1133984375  L 16.649971147017 17.97140625  L 18.2518976384943 18.3922265625  L 19.5172230113636 17.2454296875  L 19.5172230113636 8.1202734375  Z M 40.1555397727273 22.484765625  L 38.5929243607955 22.484765625  C 38.5806396484375 20.81625  38.5585271661932 17.169140625  38.6002951882102 14.7992578125  C 38.6518909801136 11.67140625  35.7797252308239 10.3498828125  34.2515070134943 10.0890234375  L 26.1902787642045 10.07671875  L 26.1902787642045 8.132578125  L 21.4926047585227 8.132578125  L 21.4926047585227 12.5401171875  L 23.9495472301136 12.5401171875  L 23.9495472301136 12.532734375  L 26.187821821733 12.5351953125  L 27.7504372336648 12.53765625  L 32.8633345170455 12.53765625  L 32.8633345170455 12.5450390625  L 33.9984419389205 12.5475  C 34.5217706853693 12.6779296875  36.1728360262784 13.211953125  36.1458096590909 14.7549609375  C 36.1163263494318 16.4726953125  36.1138694069602 19.078828125  36.1384388316761 22.49953125  L 36.1556374289773 24.7316015625  L 32.2810391512784 24.7316015625  L 32.2810391512784 16.224140625  L 22.703877397017 16.224140625  C 22.8709494850852 16.795078125  22.9815118963068 17.390625  22.9815118963068 18.0132421875  C 22.9815118963068 18.8007421875  22.8340953480114 19.5636328125  22.5884011008523 20.2526953125  L 26.1902787642045 20.2526953125  L 26.1902787642045 18.6580078125  L 29.8216397372159 18.6580078125  L 29.8216397372159 22.484765625  L 28.0526411576705 22.484765625  L 28.0526411576705 27  L 40.1555397727273 27  L 40.1555397727273 22.484765625  Z " fill-rule="nonzero" fill="#555555" stroke="none" transform="matrix(1 0 0 1 212 49 )" />
  </g>
</svg>