<?xml version="1.0" encoding="utf-8"?>
<svg version="1.1" xmlns:xlink="http://www.w3.org/1999/xlink" width="26px" height="26px" xmlns="http://www.w3.org/2000/svg">
  <defs>
    <filter x="571px" y="250px" width="26px" height="26px" filterUnits="userSpaceOnUse" id="filter55">
      <feOffset dx="1" dy="1" in="SourceAlpha" result="shadowOffsetInner" />
      <feGaussianBlur stdDeviation="2.5" in="shadowOffsetInner" result="shadowGaussian" />
      <feComposite in2="shadowGaussian" operator="atop" in="SourceAlpha" result="shadowComposite" />
      <feColorMatrix type="matrix" values="0 0 0 0 0  0 0 0 0 0  0 0 0 0 0  0 0 0 0.698039215686274 0  " in="shadowComposite" />
    </filter>
    <g id="widget56">
      <path d="M 583 254  C 587.48 254  591 257.52  591 262  C 591 266.48  587.48 270  583 270  C 578.52 270  575 266.48  575 262  C 575 257.52  578.52 254  583 254  Z " fill-rule="nonzero" fill="#009dd9" stroke="none" />
      <path d="M 583 254.5  C 587.2 254.5  590.5 257.8  590.5 262  C 590.5 266.2  587.2 269.5  583 269.5  C 578.8 269.5  575.5 266.2  575.5 262  C 575.5 257.8  578.8 254.5  583 254.5  Z " stroke-width="1" stroke="#ffffff" fill="none" />
    </g>
  </defs>
  <g transform="matrix(1 0 0 1 -571 -250 )">
    <use xlink:href="#widget56" filter="url(#filter55)" />
    <use xlink:href="#widget56" />
  </g>
</svg>