<?xml version="1.0" encoding="utf-8"?>
<svg version="1.1" xmlns:xlink="http://www.w3.org/1999/xlink" width="10px" height="61px" preserveAspectRatio="xMidYMin meet" viewBox="1063 615  8 61" xmlns="http://www.w3.org/2000/svg">
  <defs>
    <mask fill="white" id="clip128">
      <path d="M 723 601  L 843 601  L 843 639  L 723 639  Z M 463 579  L 1077 579  L 1077 686  L 463 686  Z " fill-rule="evenodd" />
    </mask>
  </defs>
  <path d="M 473 591  L 473 615  A 5 5 0 0 0 478 620 L 1062 620  A 5 5 0 0 1 1067 625 L 1067 674  " stroke-width="2" stroke="#3399ff" fill="none" mask="url(#clip128)" />
  <path d="M 473 589  A 3.5 3.5 0 0 0 469.5 592.5 A 3.5 3.5 0 0 0 473 596 A 3.5 3.5 0 0 0 476.5 592.5 A 3.5 3.5 0 0 0 473 589 Z M 1071.29289321881 668.892893218813  L 1067 673.185786437627  L 1062.70710678119 668.892893218813  L 1061.29289321881 670.307106781187  L 1066.29289321881 675.307106781187  L 1067 676.014213562373  L 1067.70710678119 675.307106781187  L 1072.70710678119 670.307106781187  L 1071.29289321881 668.892893218813  Z " fill-rule="nonzero" fill="#3399ff" stroke="none" mask="url(#clip128)" />
</svg>