<?xml version="1.0" encoding="utf-8"?>
<svg version="1.1" xmlns:xlink="http://www.w3.org/1999/xlink" width="10px" height="18px" preserveAspectRatio="xMidYMin meet" viewBox="297 1075  8 18" xmlns="http://www.w3.org/2000/svg">
  <path d="M 480 1012  L 480 1075  A 5 5 0 0 1 475 1080 L 306 1080  A 5 5 0 0 0 301 1085 L 301 1091  " stroke-width="2" stroke="#3399ff" fill="none" />
  <path d="M 480 1010  A 3.5 3.5 0 0 0 476.5 1013.5 A 3.5 3.5 0 0 0 480 1017 A 3.5 3.5 0 0 0 483.5 1013.5 A 3.5 3.5 0 0 0 480 1010 Z M 305.292893218813 1085.89289321881  L 301 1090.18578643763  L 296.707106781187 1085.89289321881  L 295.292893218813 1087.30710678119  L 300.292893218813 1092.30710678119  L 301 1093.01421356237  L 301.707106781187 1092.30710678119  L 306.707106781187 1087.30710678119  L 305.292893218813 1085.89289321881  Z " fill-rule="nonzero" fill="#3399ff" stroke="none" />
</svg>