<?xml version="1.0" encoding="utf-8"?>
<svg version="1.1" xmlns:xlink="http://www.w3.org/1999/xlink" width="10px" height="100px" preserveAspectRatio="xMidYMin meet" viewBox="486 995  8 100" xmlns="http://www.w3.org/2000/svg">
  <defs>
    <mask fill="white" id="clip68">
      <path d="M 687.5 1078  L 792.5 1078  L 792.5 1102  L 687.5 1102  Z M 470 990  L 1089 990  L 1089 1112  L 470 1112  Z " fill-rule="evenodd" />
    </mask>
  </defs>
  <path d="M 482 1000  L 485 1000  A 5 5 0 0 1 490 1005 L 490 1085  A 5 5 0 0 0 495 1090 L 1074 1090  A 5 5 0 0 1 1079 1095 L 1079 1100  " stroke-width="2" stroke="#3399ff" fill="none" mask="url(#clip68)" />
  <path d="M 483.5 996.5  A 3.5 3.5 0 0 0 480 1000 A 3.5 3.5 0 0 0 483.5 1003.5 A 3.5 3.5 0 0 0 487 1000 A 3.5 3.5 0 0 0 483.5 996.5 Z M 1083.29289321881 1094.89289321881  L 1079 1099.18578643763  L 1074.70710678119 1094.89289321881  L 1073.29289321881 1096.30710678119  L 1078.29289321881 1101.30710678119  L 1079 1102.01421356237  L 1079.70710678119 1101.30710678119  L 1084.70710678119 1096.30710678119  L 1083.29289321881 1094.89289321881  Z " fill-rule="nonzero" fill="#3399ff" stroke="none" mask="url(#clip68)" />
</svg>