<?xml version="1.0" encoding="utf-8"?>
<svg version="1.1" xmlns:xlink="http://www.w3.org/1999/xlink" width="28px" height="33px" xmlns="http://www.w3.org/2000/svg">
  <g transform="matrix(1 0 0 1 -65 -49 )">
    <path d="M 21.0729166666667 1.25223214285714  L 26.7604166666667 6.99776785714286  C 27.1006944444444 7.34151785714285  27.3923611111111 7.80803571428572  27.6354166666667 8.39732142857143  C 27.8784722222222 8.98660714285714  28 9.52678571428571  28 10.0178571428571  L 28 31.2321428571429  C 28 31.7232142857143  27.8298611111111 32.140625  27.4895833333333 32.484375  C 27.1493055555556 32.828125  26.7361111111111 33  26.25 33  L 1.75 33  C 1.26388888888889 33  0.850694444444445 32.828125  0.510416666666667 32.484375  C 0.170138888888889 32.140625  0 31.7232142857143  0 31.2321428571429  L 0 1.76785714285714  C 0 1.27678571428571  0.170138888888889 0.859374999999999  0.510416666666667 0.515625  C 0.850694444444445 0.171875000000001  1.26388888888889 0  1.75 0  L 18.0833333333333 0  C 18.5694444444444 0  19.1041666666667 0.122767857142859  19.6875 0.368303571428572  C 20.2708333333333 0.613839285714285  20.7326388888889 0.908482142857141  21.0729166666667 1.25223214285714  Z M 19.4140625 2.90959821428572  C 19.2682291666667 2.76227678571428  19.0190972222222 2.62723214285714  18.6666666666667 2.50446428571428  L 18.6666666666667 9.42857142857143  L 25.5208333333333 9.42857142857143  C 25.3993055555556 9.07254464285714  25.265625 8.82087053571428  25.1197916666667 8.67354910714286  L 19.4140625 2.90959821428572  Z M 2.33333333333333 30  L 25.6666666666667 30  L 25.6666666666667 11.7857142857143  L 18.0833333333333 11.7857142857143  C 17.5972222222222 11.7857142857143  17.1840277777778 11.6138392857143  16.84375 11.2700892857143  C 16.5034722222222 10.9263392857143  16.3333333333333 10.5089285714286  16.3333333333333 10.0178571428571  L 16.3333333333333 3  L 2.33333333333333 3  L 2.33333333333333 30  Z M 7 15.9107142857143  L 7 14.7321428571429  C 7 14.5602678571429  7.0546875 14.4190848214286  7.1640625 14.30859375  C 7.2734375 14.1981026785714  7.41319444444445 14.1428571428571  7.58333333333333 14.1428571428571  L 20.4166666666667 14.1428571428571  C 20.5868055555556 14.1428571428571  20.7265625 14.1981026785714  20.8359375 14.30859375  C 20.9453125 14.4190848214286  21 14.5602678571429  21 14.7321428571429  L 21 15.9107142857143  C 21 16.0825892857143  20.9453125 16.2237723214286  20.8359375 16.3342633928571  C 20.7265625 16.4447544642857  20.5868055555556 16.5  20.4166666666667 16  L 7.58333333333333 16  C 7.41319444444445 16.5  7.2734375 16.4447544642857  7.1640625 16.3342633928571  C 7.0546875 16.2237723214286  7 16.0825892857143  7 15.9107142857143  Z M 7.58333333333333 18.8571428571429  L 20.4166666666667 18.8571428571429  C 20.5868055555556 18.8571428571429  20.7265625 18.9123883928571  20.8359375 19.0228794642857  C 20.9453125 19.1333705357143  21 19.2745535714286  21 19.4464285714286  L 21 20.625  C 21 20.796875  20.9453125 20.9380580357143  20.8359375 21.0485491071429  C 20.7265625 21.1590401785714  20.5868055555556 21.2142857142857  20.4166666666667 21  L 7.58333333333333 21  C 7.41319444444445 21.2142857142857  7.2734375 21.1590401785714  7.1640625 21.0485491071429  C 7.0546875 20.9380580357143  7 20.796875  7 20.625  L 7 19.4464285714286  C 7 19.2745535714286  7.0546875 19.1333705357143  7.1640625 19.0228794642857  C 7.2734375 18.9123883928571  7.41319444444445 18.8571428571429  7.58333333333333 18.8571428571429  Z M 7.58333333333333 23  L 20.4166666666667 23  C 20.5868055555556 23.5714285714286  20.7265625 23.6266741071429  20.8359375 23.7371651785714  C 20.9453125 23.84765625  21 23.9888392857143  21 24.1607142857143  L 21 25.3392857142857  C 21 25.5111607142857  20.9453125 25.65234375  20.8359375 25.7628348214286  C 20.7265625 25.8733258928571  20.5868055555556 25.9285714285714  20.4166666666667 26  L 7.58333333333333 26  C 7.41319444444445 25.9285714285714  7.2734375 25.8733258928571  7.1640625 25.7628348214286  C 7.0546875 25.65234375  7 25.5111607142857  7 25.3392857142857  L 7 24.1607142857143  C 7 23.9888392857143  7.0546875 23.84765625  7.1640625 23.7371651785714  C 7.2734375 23.6266741071429  7.41319444444445 23.5714285714286  7.58333333333333 23  Z " fill-rule="nonzero" fill="#555555" stroke="none" transform="matrix(1 0 0 1 65 49 )" />
  </g>
</svg>